<?xml version="1.0" encoding="UTF-8" standalone="no"?>
<svg width="18px" height="18px" viewBox="0 0 18 18" version="1.1" xmlns="http://www.w3.org/2000/svg" xmlns:xlink="http://www.w3.org/1999/xlink" xmlns:sketch="http://www.bohemiancoding.com/sketch/ns">
    <!-- Generator: Sketch 3.0.2 (7799) - http://www.bohemiancoding.com/sketch -->
    <title>icn_send</title>
    <description>Created with Sketch.</description>
    <defs></defs>
    <g id="Assets" stroke="none" stroke-width="1" fill="none" fill-rule="evenodd" sketch:type="MSPage">
        <path d="M12.6565312,9.84375 L7.5425625,9.84375 L8.72071875,10.9040625 L8.71875,10.9063125 C8.8903125,11.0607188 9,11.2823438 9,11.53125 C9,11.9972813 8.62228125,12.375 8.15625,12.375 C7.93940625,12.375 7.743375,12.2909063 7.59403125,12.1561875 L7.5920625,12.1584375 L4.7795625,9.6271875 L4.78153125,9.6249375 C4.60996875,9.47053125 4.5,9.24890625 4.5,9 C4.5,8.75109375 4.60996875,8.52975 4.78153125,8.3750625 L4.7795625,8.3728125 L7.5920625,5.8415625 L7.59403125,5.8438125 C7.743375,5.709375 7.93940625,5.625 8.15625,5.625 C8.62228125,5.625 9,6.00271875 9,6.46875 C9,6.71765625 8.8903125,6.93928125 8.71875,7.0936875 L8.72071875,7.0959375 L7.5425625,8.15625 L12.6565312,8.15625 C13.1222812,8.15625 13.5,8.53396875 13.5,9 C13.5,9.46603125 13.1222812,9.84375 12.6565312,9.84375 L12.6565312,9.84375 Z M9,1.6875 C4.96153125,1.6875 1.6875,4.96153125 1.6875,9 C1.6875,13.0384688 4.96153125,16.3125 9,16.3125 C13.03875,16.3125 16.3125,13.0384688 16.3125,9 C16.3125,4.96153125 13.03875,1.6875 9,1.6875 L9,1.6875 Z M9,18 C4.02946875,18 0,13.9705313 0,9 C0,4.02946875 4.02946875,0 9,0 C13.9705313,0 18,4.02946875 18,9 C18,13.9705313 13.9705313,18 9,18 L9,18 Z" id="icn_send" fill="#000000" sketch:type="MSShapeGroup" transform="translate(9.000000, 9.000000) scale(-1, 1) translate(-9.000000, -9.000000) "></path>
    </g>
</svg>