<?xml version="1.0" encoding="UTF-8" standalone="no"?>
<svg width="18px" height="18px" viewBox="0 0 18 18" version="1.1" xmlns="http://www.w3.org/2000/svg" xmlns:xlink="http://www.w3.org/1999/xlink" xmlns:sketch="http://www.bohemiancoding.com/sketch/ns">
    <!-- Generator: Sketch 3.0.2 (7799) - http://www.bohemiancoding.com/sketch -->
    <title>icn_start</title>
    <description>Created with Sketch.</description>
    <defs></defs>
    <g id="Assets" stroke="none" stroke-width="1" fill="none" fill-rule="evenodd" sketch:type="MSPage">
        <path d="M11.6772188,9.72759375 L7.20225,12.5325 L7.198875,12.526875 C7.1668125,12.547125 7.133625,12.5648437 7.09903125,12.580875 C7.097625,12.5814375 7.0965,12.582 7.09509375,12.5825625 C7.06134375,12.59775 7.02646875,12.6106875 6.99046875,12.621375 C6.9879375,12.6219375 6.98540625,12.6227812 6.982875,12.6233438 C6.96740625,12.6278437 6.95165625,12.6320625 6.935625,12.6354375 C6.93309375,12.6362812 6.93028125,12.6368438 6.92746875,12.6374062 C6.90975,12.6410625 6.89203125,12.6444375 6.87375,12.64725 C6.8709375,12.6475313 6.868125,12.6478125 6.86503125,12.6480938 C6.850125,12.6503438 6.83465625,12.6520312 6.81946875,12.6531563 C6.8146875,12.6537187 6.80990625,12.654 6.805125,12.6542812 C6.78684375,12.6554063 6.7685625,12.65625 6.75,12.65625 C6.28425,12.65625 5.90625,12.2785312 5.90625,11.8125 L5.90625,6.1875 C5.90653125,5.72146875 6.28425,5.34375 6.75,5.34375 C6.926625,5.34375 7.0903125,5.39803125 7.225875,5.49084375 L11.669625,8.2681875 C11.9230313,8.41359375 12.0940313,8.6866875 12.0940313,9 C12.0940313,9.3099375 11.9264062,9.58078125 11.6772188,9.72759375 L11.6772188,9.72759375 Z M9,1.6875 C4.96153125,1.6875 1.68778125,4.96153125 1.68778125,9 C1.68778125,13.0384687 4.96153125,16.3125 9,16.3125 C13.03875,16.3125 16.3125,13.0384687 16.3125,9 C16.3125,4.96153125 13.03875,1.6875 9,1.6875 L9,1.6875 Z M9,18 C4.02946875,18 0,13.9705313 0,9 C0,4.02946875 4.02946875,0 9,0 C13.9705313,0 18,4.02946875 18,9 C18,13.9705313 13.9705313,18 9,18 L9,18 Z" id="icn_start" fill="#000000" sketch:type="MSShapeGroup"></path>
    </g>
</svg>