<?xml version="1.0" encoding="UTF-8" standalone="no"?>
<svg width="14px" height="13px" viewBox="0 0 14 13" version="1.1" xmlns="http://www.w3.org/2000/svg" xmlns:xlink="http://www.w3.org/1999/xlink" xmlns:sketch="http://www.bohemiancoding.com/sketch/ns">
    <!-- Generator: Sketch 3.0.2 (7799) - http://www.bohemiancoding.com/sketch -->
    <title>icn_star</title>
    <description>Created with Sketch.</description>
    <defs></defs>
    <g id="Assets" stroke="none" stroke-width="1" fill="none" fill-rule="evenodd" sketch:type="MSPage">
        <path d="M13.5770999,5.52097985 L13.577303,5.52097985 L10.3032831,7.81475034 L11.5645059,11.5465536 C11.5842094,11.60557 11.5949752,11.6665536 11.5949752,11.7314717 C11.5949752,12.058029 11.322174,12.3216356 10.9855906,12.3216356 C10.8523386,12.3216356 10.7290398,12.2803241 10.6286944,12.2095044 L10.6284913,12.2095044 L7.32928352,9.89802903 L4.03027884,12.2095044 L4.03007572,12.2095044 C3.9297304,12.2803241 3.8064316,12.3216356 3.67297639,12.3216356 C3.33659613,12.3216356 3.06359187,12.058029 3.06359187,11.7314717 C3.06359187,11.6665536 3.07456079,11.60557 3.09426422,11.5465536 L4.35548705,7.81475034 L1.08146714,5.52097985 C0.928714758,5.41475034 0.829385081,5.23966837 0.829385081,5.04294706 C0.829385081,4.71638968 1.10218622,4.45278313 1.43856647,4.45278313 L5.49158293,4.45278313 L6.74671191,0.738684765 C6.82308811,0.496717552 7.05506048,0.321635585 7.32928352,0.321635585 C7.60370968,0.321635585 7.83568205,0.496717552 7.91205825,0.738684765 L9.16718723,4.45278313 L13.2200006,4.45278313 C13.5565839,4.45278313 13.8293851,4.71638968 13.8293851,5.04294706 C13.8293851,5.23966837 13.7300554,5.41475034 13.5770999,5.52097985" id="icn_star" fill="#000000" sketch:type="MSShapeGroup"></path>
    </g>
</svg>