<?xml version="1.0" encoding="UTF-8" standalone="no"?>
<svg width="13px" height="12px" viewBox="0 0 13 12" version="1.1" xmlns="http://www.w3.org/2000/svg" xmlns:xlink="http://www.w3.org/1999/xlink" xmlns:sketch="http://www.bohemiancoding.com/sketch/ns">
    <!-- Generator: Sketch 3.0.2 (7799) - http://www.bohemiancoding.com/sketch -->
    <title>icn_comment</title>
    <description>Created with Sketch.</description>
    <defs></defs>
    <g id="Assets" stroke="none" stroke-width="1" fill="none" fill-rule="evenodd" sketch:type="MSPage">
        <path d="M10.0912063,9.21737705 C10.3153016,9.42 10.6161587,9.54590164 10.9492063,9.54590164 L10.9492063,9.73934426 C10.9492063,10.0659016 10.6720794,10.0295082 10.3301587,10.0295082 L4.17712698,10.0295082 L2.50136508,11.6268852 C2.38931746,11.7331148 2.23455556,11.8 2.06349206,11.8 C1.88809524,11.7980328 1.73622222,11.7331148 1.6258254,11.6268852 C1.59404762,11.5954098 1.57052381,11.5678688 1.55030159,11.5403279 C1.54225397,11.5285246 1.53688889,11.5147541 1.52966667,11.5029508 C1.51687302,11.4832787 1.50325397,11.4616393 1.49314286,11.44 C1.48839683,11.4281967 1.48633333,11.4163934 1.48220635,11.4065574 C1.47292063,11.3809836 1.46280952,11.3554098 1.45703175,11.3278688 C1.44877778,11.2904918 1.44444444,11.2511475 1.44444444,11.2098361 L1.44444444,10.0295082 L0.618222222,10.0295082 C0.276714286,10.0295082 0,9.76590164 0,9.43934426 L0,3.25081968 C0,2.9242623 0.277333333,2.66065574 0.619047619,2.66065574 L2.07619047,2.66065574 L2.07619047,6.79180328 C2.07619047,7.44295082 2.63065079,7.97213115 3.31428571,7.97213115 L8.78563491,7.97213115 L10.0912063,9.21737705 Z M11.968254,7.08196721 L11.968254,8.06557377 C11.968254,8.10688525 11.9639206,8.14622951 11.9556667,8.18360656 C11.9500952,8.21114754 11.9399841,8.23672131 11.9306984,8.26229508 C11.9265714,8.27213115 11.9245079,8.28393443 11.9197619,8.2957377 C11.9096508,8.31737705 11.8960317,8.33901639 11.8832381,8.35868852 C11.8760159,8.3704918 11.8706508,8.3842623 11.8626032,8.39606557 C11.842381,8.42360656 11.8188571,8.45114754 11.7938889,8.4747541 C11.6766825,8.58885246 11.5248095,8.65377049 11.3570476,8.6557377 C11.1783492,8.6557377 11.0235873,8.58885246 10.9115397,8.48262295 L9.44212698,7.08196721 L3.71428571,7.08196721 C3.37257143,7.08196721 3.0952381,6.81836066 3.0952381,6.49180328 L3.0952381,0.590163934 C3.0952381,0.263606557 3.37257143,0 3.71428571,0 L12.3811587,0 C12.722873,0 13,0.263606557 13,0.590163934 L13,6.49180328 C13,6.81836066 12.722873,7.08196721 12.3811587,7.08196721 L11.968254,7.08196721 Z" id="icn_comment" fill="#000000" sketch:type="MSShapeGroup"></path>
    </g>
</svg>