<?xml version="1.0" encoding="UTF-8" standalone="no"?>
<svg width="18px" height="18px" viewBox="0 0 18 18" version="1.1" xmlns="http://www.w3.org/2000/svg" xmlns:xlink="http://www.w3.org/1999/xlink" xmlns:sketch="http://www.bohemiancoding.com/sketch/ns">
    <!-- Generator: Sketch 3.0.2 (7799) - http://www.bohemiancoding.com/sketch -->
    <title>icn_accept</title>
    <description>Created with Sketch.</description>
    <defs></defs>
    <g id="Assets" stroke="none" stroke-width="1" fill="none" fill-rule="evenodd" sketch:type="MSPage">
        <path d="M12.9375,12.0940313 L12.9375,12.0934688 L12.9375,12.09375 L12.9375,12.0940313 L12.9375,12.0940313 Z M12.0940313,12.9375 L12.09375,12.9375 L12.0940313,12.9375 L12.0940313,12.9375 Z M5.90625,12.9375 L5.90653125,12.9375 C5.90653125,12.9375 5.90653125,12.9375 5.90625,12.9375 L5.90625,12.9375 Z M12.9375,5.90596875 L12.9375,5.90625 L12.9375,5.90653125 L12.9375,5.90596875 L12.9375,5.90596875 Z M12.9718125,7.34653125 L8.4718125,11.8465313 C8.31909375,11.99925 8.10815625,12.09375 7.875,12.09375 C7.642125,12.09375 7.4311875,11.99925 7.27846875,11.8465313 L4.74721875,9.31528125 C4.5945,9.1625625 4.5,8.951625 4.5,8.71875 C4.5,8.25271875 4.878,7.875 5.34375,7.875 C5.57690625,7.875 5.78784375,7.9695 5.9405625,8.12221875 L7.875,10.0566563 L11.7784688,6.15346875 C11.9311875,6.00075 12.142125,5.90625 12.375,5.90625 C12.8410312,5.90625 13.21875,6.28396875 13.21875,6.75 C13.21875,6.982875 13.1245313,7.1938125 12.9718125,7.34653125 L12.9718125,7.34653125 Z M9,1.6875 C4.96153125,1.6875 1.6875,4.96153125 1.6875,9 C1.6875,13.0384688 4.96153125,16.3125 9,16.3125 C13.03875,16.3125 16.3125,13.0384688 16.3125,9 C16.3125,4.96153125 13.03875,1.6875 9,1.6875 L9,1.6875 Z M9,18 C4.02946875,18 0,13.9705313 0,9 C0,4.02946875 4.02946875,0 9,0 C13.9708125,0 18,4.02946875 18,9 C18,13.9705313 13.9708125,18 9,18 L9,18 Z" id="icn_accept" fill="#000000" sketch:type="MSShapeGroup"></path>
    </g>
</svg>