<?xml version="1.0" encoding="UTF-8" standalone="no"?>
<svg width="17px" height="11px" viewBox="0 0 17 11" version="1.1" xmlns="http://www.w3.org/2000/svg" xmlns:xlink="http://www.w3.org/1999/xlink" xmlns:sketch="http://www.bohemiancoding.com/sketch/ns">
    <!-- Generator: Sketch 3.0.2 (7799) - http://www.bohemiancoding.com/sketch -->
    <title>icn_deliver</title>
    <description>Created with Sketch.</description>
    <defs></defs>
    <g id="Assets" stroke="none" stroke-width="1" fill="none" fill-rule="evenodd" sketch:type="MSPage">
        <path d="M14.4221282,7.94548002 L15.6041758,7.94548002 C15.8177909,7.94548002 15.9909601,7.77256784 15.9909601,7.55841561 L15.9909601,5.44754067 C15.9909601,5.2337709 15.89447,4.91498739 15.7765671,4.7372118 L14.1475931,2.38102447 C14.0291871,2.20249044 13.7604367,2.05776001 13.5481157,2.05776001 L10.961,2.05776001 L10.961,7.22262492 C11.3278601,6.78111586 11.881101,6.5 12.5,6.5 C13.4121756,6.5 14.1817229,7.11066457 14.4221282,7.94548002 Z M3.00176671,7.17508881 L1.39219761,5.91309586 C1.17867947,5.7456856 1,5.38492142 1,5.11271193 L1,1.49287889 C1,1.22213722 1.22818517,1 1.50966585,1 L9.49033415,1 C9.77752686,1 10,1.22402997 10,1.50038494 L10,7.45737506 C10,7.72626288 9.78016949,7.95776001 9.50899482,7.95776001 L6.42562173,7.95776001 C6.18925621,7.11665988 5.41664242,6.5 4.5,6.5 C3.90361293,6.5 3.36819434,6.7610371 3.00176671,7.17508881 Z M12.0116844,3.04607441 L12.0116844,4.87052562 C12.0116844,4.97664601 12.0989686,5.06267358 12.2050601,5.06267358 L14.6316986,5.06267358 C14.7384971,5.06267358 14.7809809,4.98918461 14.7254653,4.89665856 L13.599435,3.01994147 C13.5444225,2.9282539 13.413385,2.85392645 13.3052775,2.85392645 L12.2062329,2.85392645 C12.0987868,2.85392645 12.0116844,2.94051195 12.0116844,3.04607441 Z M12.5,10 C13.3284271,10 14,9.32842712 14,8.5 C14,7.67157288 13.3284271,7 12.5,7 C11.6715729,7 11,7.67157288 11,8.5 C11,9.32842712 11.6715729,10 12.5,10 Z M4.5,10 C5.32842712,10 6,9.32842712 6,8.5 C6,7.67157288 5.32842712,7 4.5,7 C3.67157288,7 3,7.67157288 3,8.5 C3,9.32842712 3.67157288,10 4.5,10 Z" id="icn_deliver" fill="#000000" sketch:type="MSShapeGroup"></path>
    </g>
</svg>