<?xml version="1.0" encoding="UTF-8" standalone="no"?>
<svg width="13px" height="12px" viewBox="0 0 13 12" version="1.1" xmlns="http://www.w3.org/2000/svg" xmlns:xlink="http://www.w3.org/1999/xlink" xmlns:sketch="http://www.bohemiancoding.com/sketch/ns">
    <!-- Generator: Sketch 3.0.2 (7799) - http://www.bohemiancoding.com/sketch -->
    <title>icn_bug</title>
    <description>Created with Sketch.</description>
    <defs></defs>
    <g id="Assets" stroke="none" stroke-width="1" fill="none" fill-rule="evenodd" sketch:type="MSPage">
        <path d="M0.677222477,8.7297788 C1.05103211,8.7297788 1.35444495,8.44830415 1.35444495,8.10171429 L1.35444495,7.5239447 C1.35444495,7.2175576 1.61996101,6.97130876 1.95050688,6.97130876 L2.18883028,6.97130876 C2.17520413,7.08677419 2.16712385,7.20718894 2.16712385,7.33036866 C2.16712385,7.82026728 2.26736697,8.28765899 2.44886009,8.71719816 L1.62532798,9.53883871 C1.47084862,9.69190783 1.35441514,10.0309217 1.35441514,10.2369401 L1.35441514,11.3674562 C1.35441514,11.7141014 1.6578578,11.9954378 2.03166743,11.9954378 C2.40550688,11.9954378 2.70888991,11.7141014 2.70888991,11.3674562 L2.70888991,10.5985714 C2.70888991,10.4857051 2.74410321,10.3827097 2.80641972,10.2949493 L3.22095872,9.88526267 C3.74107798,10.4302949 4.33433716,10.9858065 5.21207569,11.2065622 C5.23097936,11.2143871 5.25268578,11.2192535 5.2743922,11.2242304 C5.32039908,11.2369217 6.36923853,11.241871 6.41789908,11.241871 C6.71594495,11.241871 6.28724541,11.2418157 6.58505275,11.2418157 C6.64200229,11.2418157 7.69886239,11.2344055 7.75309862,11.2167926 L7.82078211,11.1991244 C8.66077294,10.9831797 9.26741972,10.4254009 9.78187385,9.88520737 L10.196711,10.294894 C10.2589083,10.382682 10.2941216,10.4856498 10.2941216,10.5985161 L10.2941216,11.3674009 C10.2941216,11.7140461 10.5975046,11.9953825 10.9712844,11.9953825 C11.3451835,11.9953825 11.6485665,11.7140461 11.6485665,11.3674009 L11.6485665,10.2368848 C11.6485665,10.0308664 11.5321628,9.69185253 11.3776537,9.53878341 L10.5540917,8.71714286 C10.7355849,8.28760369 10.835828,7.82021198 10.835828,7.33031336 C10.835828,7.20713364 10.8279564,7.08669124 10.8141514,6.97125346 L11.0525046,6.97125346 C11.3829908,6.97125346 11.6485367,7.2175023 11.6485367,7.5238894 L11.6485367,8.10165899 C11.6485367,8.44824885 11.9519197,8.7297235 12.3258486,8.7297235 C12.6996284,8.7297235 13.0030115,8.44824885 13.0030115,8.10165899 L13.0030115,6.97122581 C13.0030115,6.27785253 12.3961261,5.71512442 11.6485367,5.71512442 L10.3725986,5.71512442 C10.2506789,5.50412903 10.1126284,5.30059908 9.97180505,5.09712442 L11.1067408,3.95659908 C11.26125,3.80341935 11.3776537,3.4441106 11.3776537,3.20297696 L11.3776537,2.07248848 C11.3776537,1.72587097 11.0742706,1.44447926 10.7004908,1.44447926 C10.3265619,1.44447926 10.0232087,1.72587097 10.0232087,2.07248848 L10.0232087,2.90142857 C10.0232087,3.01454378 9.98799541,3.11759447 9.92579817,3.20538249 L9.19699312,3.92894931 C8.89361009,3.38129032 8.66870413,2.75585253 8.66870413,1.94690323 C8.66870413,1.00988018 7.97800459,0.223576037 7.04331651,0 L7.04331651,1.19328111 C7.04331651,1.4696129 6.79938761,1.69567742 6.50149083,1.69567742 C6.20344495,1.69567742 5.95972477,1.4696129 5.95972477,1.19328111 L5.95972477,0.000110599078 C5.02506651,0.223686636 4.33433716,1.00999078 4.33433716,1.94701382 C4.33433716,2.75336406 4.10665826,3.37636866 3.8033945,3.92402765 L3.07733257,3.20546544 C3.01501606,3.11767742 2.97980275,3.01462673 2.97980275,2.90151152 L2.97980275,2.07257143 C2.97980275,1.72595392 2.67636009,1.44456221 2.30258028,1.44456221 C1.92880046,1.44456221 1.62532798,1.72595392 1.62532798,2.07257143 L1.62532798,3.20305991 C1.62532798,3.44419355 1.74170183,3.8035023 1.89627064,3.95668203 L3.02583945,5.09217512 C2.88236239,5.29564977 2.74690596,5.5016129 2.62492661,5.71517972 L1.35444495,5.71517972 C0.606885321,5.71517972 0,6.27790783 0,6.97128111 L0,8.10171429 C1.05929536e-16,8.44830415 0.303442661,8.7297788 0.677222477,8.7297788 Z" id="icn_bug" fill="#000000" sketch:type="MSShapeGroup"></path>
    </g>
</svg>