<?xml version="1.0" encoding="UTF-8" standalone="no"?>
<svg width="18px" height="18px" viewBox="0 0 18 18" version="1.1" xmlns="http://www.w3.org/2000/svg" xmlns:xlink="http://www.w3.org/1999/xlink" xmlns:sketch="http://www.bohemiancoding.com/sketch/ns">
    <!-- Generator: Sketch 3.0.2 (7799) - http://www.bohemiancoding.com/sketch -->
    <title>icn_decline</title>
    <description>Created with Sketch.</description>
    <defs></defs>
    <g id="Assets" stroke="none" stroke-width="1" fill="none" fill-rule="evenodd" sketch:type="MSPage">
        <path d="M12.09375,12.9375 C11.860875,12.9375 11.6499375,12.843 11.4972188,12.6902813 L9.00028125,10.1933438 L6.5030625,12.6902813 C6.35034375,12.843 6.13940625,12.9375 5.90625,12.9375 C5.4405,12.9375 5.0625,12.5597813 5.0625,12.09375 C5.0625,11.860875 5.157,11.6499375 5.30971875,11.4972188 L7.8069375,9 L5.30971875,6.5030625 C5.157,6.3500625 5.0625,6.13940625 5.0625,5.90625 C5.0625,5.44021875 5.4405,5.0625 5.90625,5.0625 C6.13940625,5.0625 6.35034375,5.157 6.5030625,5.30971875 L9.00028125,7.8069375 L11.4972188,5.30971875 C11.6499375,5.157 11.860875,5.0625 12.09375,5.0625 C12.5597813,5.0625 12.9377813,5.44021875 12.9377813,5.90625 C12.9377813,6.13940625 12.8432813,6.3500625 12.6905625,6.5030625 L10.1933437,9 L12.6905625,11.4972188 C12.8432813,11.6499375 12.9377813,11.860875 12.9377813,12.09375 C12.9377813,12.5597813 12.5597813,12.9375 12.09375,12.9375 L12.09375,12.9375 Z M9.00028125,1.6875 C4.96153125,1.6875 1.6875,4.96153125 1.6875,9 C1.6875,13.0384688 4.96153125,16.3125 9.00028125,16.3125 C13.03875,16.3125 16.3125,13.0384688 16.3125,9 C16.3125,4.96153125 13.03875,1.6875 9.00028125,1.6875 L9.00028125,1.6875 Z M9.00028125,18 C4.02946875,18 0,13.9705313 0,9 C0,4.02946875 4.02946875,0 9.00028125,0 C13.9708125,0 18,4.02946875 18,9 C18,13.9705313 13.9708125,18 9.00028125,18 L9.00028125,18 Z" id="icn_decline" fill="#000000" sketch:type="MSShapeGroup"></path>
    </g>
</svg>