<?xml version="1.0" encoding="UTF-8" standalone="no"?>
<svg width="12px" height="14px" viewBox="0 0 12 14" version="1.1" xmlns="http://www.w3.org/2000/svg" xmlns:xlink="http://www.w3.org/1999/xlink" xmlns:sketch="http://www.bohemiancoding.com/sketch/ns">
    <!-- Generator: Sketch 3.0.2 (7799) - http://www.bohemiancoding.com/sketch -->
    <title>icn_logout</title>
    <description>Created with Sketch.</description>
    <defs></defs>
    <g id="Assets" stroke="none" stroke-width="1" fill="none" fill-rule="evenodd" sketch:type="MSPage">
        <path d="M5,2 L2,2 L2,12 L5,12 C5.61714286,12.3846154 6,12.7461923 6,13 C6,13.6384231 5.61714286,14 5,14 L1,14 C0.382857143,14 0,13.6384231 0,13 L0,1 C0,0.361576923 0.382857143,0 1,0 L5,0 C5.61714286,0 6,0.361576923 6,1 C6,1.25380769 5.61714286,1.61538462 5,2 L5,2 Z M11.9029697,7.04062389 L9,10 C8.76,9.927 8,9 8,9 L9,8 L4,8 L4,6 L9,6 C9,6 7.5,4.97125 8,5 C7.5,4.33575 8.76,4.073 9,4 L11.9029697,7.04062389 Z" id="icn_logout" fill="#000000" sketch:type="MSShapeGroup"></path>
    </g>
</svg>