<?xml version="1.0" encoding="UTF-8" standalone="no"?>
<svg width="13px" height="12px" viewBox="0 0 13 12" version="1.1" xmlns="http://www.w3.org/2000/svg" xmlns:xlink="http://www.w3.org/1999/xlink" xmlns:sketch="http://www.bohemiancoding.com/sketch/ns">
    <!-- Generator: Sketch 3.0.2 (7799) - http://www.bohemiancoding.com/sketch -->
    <title>icn_case</title>
    <description>Created with Sketch.</description>
    <defs></defs>
    <g id="Assets" stroke="none" stroke-width="1" fill="none" fill-rule="evenodd" sketch:type="MSPage">
        <path d="M0,3.72413793 C0,3.38068966 0.399512199,3.10344828 0.8917683,3.10344828 L1.5,3.10344828 L1.5,12 L0.8917683,12 C0.399512199,12 0,11.7227586 0,11.3793103 L0,3.72413793 Z M6.5,1.24137931 C5.49046875,1.24137931 4.671875,2.07517241 4.671875,3.10344828 L8.328125,3.10344828 C8.328125,2.07517241 7.50973438,1.24137931 6.5,1.24137931 L6.5,1.24137931 Z M2.034375,12 L2.034375,3.10344828 L3.453125,3.10344828 C3.453125,1.39034483 4.8173125,0 6.5,0 C8.18289063,0 9.546875,1.39034483 9.546875,3.10344828 L10.965625,3.10344828 L10.965625,12 L2.234375,12 L2.034375,12 Z M11.475,12 L11.475,3.10344828 L12.390625,3.10344828 C12.7272031,3.10344828 13,3.38068966 13,3.72413793 L13,11.3793103 C13,11.7227586 12.7272031,12 12.390625,12 L11.475,12 Z" id="icn_case" fill="#000000" sketch:type="MSShapeGroup"></path>
    </g>
</svg>