<?xml version="1.0" encoding="UTF-8" standalone="no"?>
<svg width="12px" height="12px" viewBox="0 0 12 12" version="1.1" xmlns="http://www.w3.org/2000/svg" xmlns:xlink="http://www.w3.org/1999/xlink" xmlns:sketch="http://www.bohemiancoding.com/sketch/ns">
    <!-- Generator: Sketch 3.0.2 (7799) - http://www.bohemiancoding.com/sketch -->
    <title>icn_add</title>
    <description>Created with Sketch.</description>
    <defs></defs>
    <g id="Assets" stroke="none" stroke-width="1" fill="none" fill-rule="evenodd" sketch:type="MSPage">
        <path d="M12,6 C12,6.55228475 11.5562834,7 11.0001925,7 L7,7 L7,11.0001925 C7,11.5523709 6.55613518,12 6,12 L6,12 C5.44771525,12 5,11.5562834 5,11.0001925 L5,7 L0.999807492,7 C0.447629061,7 -4.26325641e-14,6.55613518 -4.26325641e-14,6 L-4.26325641e-14,6 C-4.26325641e-14,5.44771525 0.443716645,5 0.999807492,5 L5,5 L5,0.999807492 C5,0.447629061 5.44386482,-7.10542736e-15 6,-7.10542736e-15 L6,-7.10542736e-15 C6.55228475,-7.10542736e-15 7,0.443716645 7,0.999807492 L7,5 L11.0001925,5 C11.5523709,5 12,5.44386482 12,6 L12,6 Z" id="icn_add" fill="#000000" sketch:type="MSShapeGroup"></path>
    </g>
</svg>